<svg xmlns="http://www.w3.org/2000/svg" width="183.435" height="50.909" viewBox="0 0 183.435 50.909"><defs><style>.a{fill:#f5f6f8;}.b{fill:#ff1a1f;}</style></defs><g transform="translate(-199.1 -553.1)"><g transform="translate(200.616 576.984)"><rect class="a" width="13.919" height="3.141" transform="translate(0 0)"/><rect class="a" width="13.919" height="3.141" transform="translate(20.743 0)"/><rect class="a" width="13.919" height="3.141" transform="translate(145.091 0)"/><rect class="a" width="13.919" height="3.141" transform="translate(165.833 0)"/></g><g transform="translate(199.1 553.1)"><rect class="a" width="183.435" height="3.141"/><rect class="a" width="183.435" height="3.141" transform="translate(0 47.768)"/></g><path class="a" d="M290.735,593.339h-.108a7.314,7.314,0,0,1-5.957,2.654,9.29,9.29,0,0,1-9.369-9.532,9.72,9.72,0,0,1,9.586-9.532,6.807,6.807,0,0,1,5.741,2.654h.108V572h3.845v23.5h-3.845v-2.166Zm-5.524-.975a5.853,5.853,0,0,0,0-11.7,5.849,5.849,0,0,0,0,11.7Z" transform="translate(-34.931 -8.664)"/><path class="a" d="M317,581.633h3.629v2h.108a3.991,3.991,0,0,1,5.687-1.9l-1.408,3.845a3.128,3.128,0,0,0-1.462-.487,2.636,2.636,0,0,0-2.654,2.708v11.969H317Z" transform="translate(-54.047 -12.882)"/><path class="a" d="M337.466,571.2a2.166,2.166,0,1,1,0,4.333,2.138,2.138,0,0,1-2.166-2.166A2.173,2.173,0,0,1,337.466,571.2Zm-1.95,5.849h3.845v18.089h-3.845Z" transform="translate(-62.436 -8.297)"/><path class="a" d="M344.3,582h4.333l4.008,10.344h.108L356.757,582h4.333l-8.395,18.576Z" transform="translate(-66.562 -13.248)"/><path class="a" d="M392.96,595.777a10.845,10.845,0,0,1-8.395,4.387,9.541,9.541,0,1,1,0-19.064,9.689,9.689,0,0,1,9.369,10.128v.7h-15a5.423,5.423,0,0,0,5.524,4.712,6.324,6.324,0,0,0,5.2-2.816Zm-3.575-6.986a5.435,5.435,0,0,0-5.362-4.224,5.043,5.043,0,0,0-5.091,4.224Z" transform="translate(-80.452 -12.836)"/><path class="b" d="M411.712,577.049h3.845V595.3c0,3.2-1.571,5.362-5.687,7.2l-1.571-3.087c2.654-1.408,3.412-2.275,3.412-4.387Zm1.95-5.849a2.166,2.166,0,1,1,0,4.333,2.166,2.166,0,1,1,0-4.333Z" transform="translate(-95.9 -8.297)"/><path class="b" d="M435.265,581.2a9.541,9.541,0,1,1-9.965,9.532A9.51,9.51,0,0,1,435.265,581.2Zm0,15.381a5.849,5.849,0,1,0-5.849-5.849A5.77,5.77,0,0,0,435.265,596.581Z" transform="translate(-103.693 -12.882)"/></g></svg>